<svg width="24" height="24" viewBox="0 0 24 24" fill="none" xmlns="http://www.w3.org/2000/svg">
<path d="M2 3C2 1.89543 2.89543 1 4 1H16L22 7V21C22 22.1046 21.1046 23 20 23H4C2.89543 23 2 22.1046 2 21V3Z" fill="#4C87F6"/>
<path d="M18.0876 7C16.9356 7 16 6.06443 16 4.91237V1L22 7H18.0876Z" fill="#0B50D0"/>
<path d="M14 9C14 10.1028 13.1072 11 12 11C10.8928 11 10 10.1072 10 9C10 7.89278 10.8972 7 12 7C13.1028 7 14 7.89278 14 9Z" fill="white"/>
<path d="M15.994 14.0196C15.994 12.902 14.8904 12 13.5362 12H10.4579C9.09769 12 8 12.9069 8 14.0196V15H16V14.0196H15.994Z" fill="white"/>
<rect opacity="0.5" x="6" y="18" width="12" height="2" rx="1" fill="white"/>
</svg>
