<svg width="44" height="44" viewBox="0 0 44 44" fill="none" xmlns="http://www.w3.org/2000/svg">
<rect width="44" height="44" rx="16" fill="#F4F5F6"/>
<path d="M27.5441 17.6979C27.5441 21.2519 24.9079 21.9066 21.3302 21.9066C19.0398 21.2461 17.7625 22.2552 15.9635 20.9713C13.8957 19.4956 15.0721 16.8016 15.3545 15.3987C15.4487 14.744 15.6811 10.8706 18.5998 9.5612C18.5998 9.5612 19.4663 8.94141 21.2978 8.94141C22.9226 8.94141 23.6855 9.2539 23.6855 9.2539C24.6648 9.43078 25.6489 10.2835 26.0255 10.7511C28.2851 13.3699 27.5441 17.0432 27.5441 17.7915V17.6979Z" fill="#9C6136"/>
<path d="M27.4642 33.3164C28.4282 32.5682 28.7174 31.82 28.9102 31.4459C29.4886 29.8559 29.0066 27.9854 27.9462 26.8631C27.4642 26.3955 27.0786 26.3019 26.7894 25.6473C26.4038 24.8055 26.7894 24.3379 26.5966 23.4962C26.211 21.8127 23.8975 21.158 23.5119 21.0645C21.9695 20.5969 20.6199 20.8775 20.0416 21.0645C18.7884 20.6904 17.9208 20.971 17.5352 21.0645C15.7036 21.7192 14.5469 23.9638 14.7397 26.5825H18.21L16.3784 30.1365C16.1856 30.6041 15.9928 31.0718 15.8964 31.5394C15.5779 32.6211 15.3909 33.5751 15.2812 34.4541C15.2447 34.7464 15.4761 34.9998 15.7707 34.9998H27.7354C28.0115 34.9998 28.2354 34.776 28.2354 34.4998V31.82" fill="#FF9494"/>
<path d="M20.8137 30.2297C20.8137 30.2297 19.5606 30.0427 18.7894 29.388C18.5966 29.201 18.5002 29.0139 18.5002 29.0139C18.5002 28.9204 18.5002 28.8269 18.5002 28.7334V25.9276L15.2227 25.6758V29.388C15.2227 29.7621 15.4155 30.1362 15.7046 30.4168C16.283 30.978 17.0542 31.5391 17.9218 32.1003C19.4642 33.0355 21.0065 33.4096 21.9705 33.6902C21.9705 33.6902 22.7417 33.8773 23.3201 33.4096C23.8021 33.0355 23.8021 32.3809 23.8021 32.2873C23.8021 31.4763 22.9516 30.9509 22.9516 30.9509C22.377 30.4832 21.7777 30.3233 20.8137 30.2297Z" fill="#FFC599"/>
<path d="M27.4642 33.3164C28.4282 32.5682 28.7174 31.82 28.9102 31.4459C29.4886 29.8559 29.0066 27.9854 27.9462 26.8631C27.4642 26.3955 27.0786 26.3019 26.7894 25.6473C26.4038 24.8055 26.7894 24.3379 26.5966 23.4962C26.211 21.8127 23.8975 21.158 23.5119 21.0645C21.9695 20.5969 20.6199 20.8775 20.0416 21.0645C18.7884 20.6904 17.9208 20.971 17.5352 21.0645C15.7036 21.7192 14.5469 23.9638 14.7397 26.5825H20.1379" fill="#FF9494"/>
<path d="M19.3672 20.9717V18.54L23.5123 20.4106V22.2811C23.5123 22.6552 23.1267 23.0293 22.7411 22.9358C22.3555 22.8422 21.7772 22.7487 21.1988 22.4681C20.2348 22.0005 19.6564 21.3458 19.3672 20.9717Z" fill="#FFC599"/>
<path d="M22.5468 11.4311C20.6189 11.6181 18.8837 12.6469 18.2089 14.3304C17.4377 14.3304 16.8594 15.0786 16.8594 15.8268C16.8594 16.575 17.2449 17.0426 17.9197 17.2297C18.4017 19.3808 20.3297 20.9707 22.5468 20.9707C24.764 20.9707 27.0433 18.9261 27.0433 16.3074C27.0433 13.6887 26.3965 11.0576 22.5468 11.4311Z" fill="url(#paint0_linear_17977_209644)"/>
<path d="M24.8619 17.8379C24.995 17.8379 25.1029 17.9357 25.1029 18.0563C25.1029 18.1196 25.0748 18.1757 25.0614 18.2013C25.0429 18.2367 25.0186 18.2744 24.9899 18.3122C24.9319 18.3885 24.8484 18.4763 24.7423 18.5596C24.5302 18.7261 24.2116 18.8862 23.8019 18.8863C23.299 18.9295 22.9095 18.7502 22.6524 18.5664C22.5218 18.4729 22.4218 18.3767 22.355 18.3036C22.3214 18.267 22.2957 18.2352 22.2778 18.2124C22.2689 18.2011 22.2621 18.1919 22.257 18.1851C22.2545 18.1816 22.252 18.1787 22.2505 18.1765L22.2486 18.174L22.2476 18.1731C22.1772 18.0709 22.2112 17.9351 22.3239 17.8712C22.4225 17.8153 22.5488 17.8319 22.6261 17.9053L22.6562 17.9403L22.6581 17.9428C22.6605 17.9461 22.6644 17.9524 22.6703 17.9599C22.6821 17.9749 22.7008 17.9973 22.7259 18.0247C22.7765 18.08 22.8525 18.1531 22.9509 18.2235C23.1472 18.3639 23.4229 18.4857 23.7746 18.4504C23.7834 18.4495 23.793 18.4495 23.8019 18.4495C24.0666 18.4494 24.2777 18.3466 24.4269 18.2294C24.5015 18.1708 24.5573 18.1113 24.5926 18.0648C24.6088 18.0435 24.6191 18.0272 24.6246 18.017C24.645 17.9151 24.7435 17.8379 24.8619 17.8379Z" fill="#46464A"/>
<path d="M25.0294 18.0566C25.0294 17.9843 24.9619 17.9133 24.8633 17.9131C24.7762 17.9131 24.7118 17.9697 24.6993 18.0322C24.6978 18.0394 24.695 18.0463 24.6915 18.0527C24.6838 18.0667 24.6714 18.0867 24.6534 18.1104C24.6142 18.1619 24.5539 18.2258 24.4747 18.2881C24.3153 18.4132 24.0878 18.5243 23.8028 18.5244C23.793 18.5244 23.7876 18.525 23.7833 18.5254C23.4088 18.563 23.1152 18.4322 22.9083 18.2842C22.8051 18.2104 22.7254 18.1336 22.6719 18.0752C22.6457 18.0465 22.6254 18.0224 22.6124 18.0059C22.6082 18.0006 22.6051 17.9957 22.6026 17.9922C22.6015 17.9907 22.6003 17.9892 22.5997 17.9883L22.5987 17.9873L22.5967 17.9844H22.5958L22.5753 17.96L22.5294 17.9297C22.4784 17.9068 22.4151 17.9068 22.3624 17.9365C22.2852 17.9804 22.2669 18.0675 22.3106 18.1309L22.3135 18.1338C22.3147 18.1352 22.3164 18.1378 22.3184 18.1406C22.3231 18.147 22.3298 18.1556 22.338 18.166C22.3552 18.1879 22.3795 18.2182 22.4112 18.2529C22.4752 18.3228 22.5717 18.416 22.6973 18.5059C22.9441 18.6822 23.3167 18.8528 23.7969 18.8115L23.8028 18.8105V18.8115C24.1921 18.8114 24.4953 18.6596 24.6973 18.501C24.7985 18.4216 24.8767 18.3377 24.9307 18.2666C24.9573 18.2316 24.9799 18.1971 24.9962 18.166C25.0091 18.1413 25.0292 18.0998 25.0294 18.0566ZM25.1788 18.0566C25.1787 18.1396 25.1427 18.21 25.129 18.2363C25.1082 18.2759 25.0815 18.317 25.0508 18.3574C24.9889 18.4389 24.9009 18.5311 24.7901 18.6182C24.5689 18.7919 24.236 18.9584 23.8087 18.96L23.8096 18.9609C23.2844 19.0061 22.8767 18.8181 22.6094 18.627C22.4742 18.5301 22.3705 18.4305 22.3008 18.3545C22.2656 18.316 22.2384 18.2825 22.2198 18.2588C22.2103 18.2467 22.2027 18.2367 22.1973 18.2295L22.1915 18.2207L22.1866 18.2158C22.0894 18.0748 22.1401 17.8898 22.2882 17.8057C22.3991 17.743 22.537 17.751 22.6378 17.8184L22.6788 17.8506L22.6846 17.8564H22.6837L22.7139 17.8916L22.7178 17.8955L22.7198 17.8984C22.7211 17.9002 22.7219 17.9022 22.7227 17.9033C22.7237 17.9048 22.7248 17.906 22.7257 17.9072C22.7271 17.9093 22.7289 17.9111 22.7305 17.9131C22.7411 17.9265 22.7585 17.9477 22.7823 17.9736C22.83 18.0257 22.902 18.0954 22.9952 18.1621C23.181 18.295 23.439 18.4089 23.7676 18.376C23.7809 18.3746 23.795 18.375 23.8028 18.375C24.0471 18.3749 24.2428 18.2801 24.3819 18.1709C24.4516 18.1161 24.5029 18.0608 24.5342 18.0195C24.5464 18.0035 24.5525 17.9906 24.5567 17.9834C24.5926 17.8524 24.7206 17.7627 24.8633 17.7627C25.0306 17.7629 25.1788 17.888 25.1788 18.0566Z" fill="#46464A"/>
<path d="M22.064 16.8557C22.3302 16.8557 22.546 16.6045 22.546 16.2946C22.546 15.9846 22.3302 15.7334 22.064 15.7334C21.7978 15.7334 21.582 15.9846 21.582 16.2946C21.582 16.6045 21.7978 16.8557 22.064 16.8557Z" fill="#46464A"/>
<path d="M22.3965 16.2949C22.3965 16.0459 22.2271 15.8841 22.0645 15.8838C21.9017 15.8838 21.7324 16.0456 21.7324 16.2949C21.7326 16.544 21.9018 16.7061 22.0645 16.7061V16.8555L21.9668 16.8447C21.7784 16.7999 21.6302 16.6266 21.5918 16.4072L21.582 16.2949C21.582 15.985 21.7983 15.7334 22.0645 15.7334L22.1611 15.7451C22.3807 15.7975 22.5459 16.0238 22.5459 16.2949L22.5361 16.4072C22.4913 16.663 22.2973 16.8552 22.0645 16.8555V16.7061C22.227 16.7058 22.3963 16.5438 22.3965 16.2949Z" fill="#46464A"/>
<path d="M22.0742 15.6582V15.6592L22.1709 15.6709L22.1797 15.6719L22.2734 15.7041C22.4822 15.7998 22.6221 16.0333 22.6221 16.2949V16.3018L22.6123 16.4141L22.6113 16.4199C22.5618 16.7026 22.3431 16.9304 22.0654 16.9307H22.0576V16.9297L21.96 16.9189L21.9502 16.918C21.7275 16.8649 21.5611 16.663 21.5186 16.4199L21.5176 16.4141L21.5078 16.3018V16.2949L21.5186 16.1699C21.5687 15.8852 21.7872 15.6582 22.0654 15.6582H22.0742ZM21.8496 16.7051C21.8912 16.7365 21.9367 16.7599 21.9854 16.7715H21.9863C21.9374 16.7597 21.8915 16.7365 21.8496 16.7051ZM22.1709 16.7607C22.1838 16.7565 22.1966 16.7527 22.209 16.7471C22.1966 16.7528 22.1837 16.7565 22.1709 16.7607ZM22.2354 16.7334C22.2491 16.7257 22.2624 16.7174 22.2754 16.708C22.2624 16.7174 22.2491 16.7257 22.2354 16.7334ZM22.0225 15.9639C21.9194 15.9893 21.8086 16.1043 21.8086 16.2949L21.8145 16.3721C21.8439 16.5403 21.9674 16.6309 22.0654 16.6309L22.1084 16.625C22.2113 16.5992 22.3221 16.4849 22.3223 16.2949L22.3164 16.2178C22.2871 16.0498 22.1636 15.9592 22.0654 15.959L22.0225 15.9639ZM21.7354 16.5781C21.7633 16.6244 21.798 16.6635 21.8369 16.6953C21.7979 16.6636 21.7634 16.6243 21.7354 16.5781ZM22.3076 16.6816C22.3143 16.6757 22.3208 16.6695 22.3271 16.6631C22.3208 16.6695 22.3143 16.6757 22.3076 16.6816ZM22.3623 16.625C22.3688 16.6167 22.3739 16.6075 22.3799 16.5986C22.3739 16.6074 22.3688 16.6167 22.3623 16.625ZM21.6963 16.4971C21.7048 16.5193 21.7145 16.5404 21.7256 16.5605C21.7145 16.5404 21.7048 16.5193 21.6963 16.4971ZM22.4072 16.5547C22.4115 16.5468 22.4151 16.5385 22.4189 16.5303C22.4151 16.5385 22.4115 16.5468 22.4072 16.5547ZM21.6709 16.4141C21.6755 16.4356 21.6816 16.4564 21.6885 16.4766C21.6817 16.4564 21.6754 16.4357 21.6709 16.4141ZM21.7305 16.0186C21.7005 16.0699 21.6784 16.1288 21.667 16.1934L21.6924 16.1006C21.703 16.0715 21.7156 16.044 21.7305 16.0186ZM22.4521 16.1504C22.4488 16.1375 22.4456 16.1247 22.4414 16.1123C22.4456 16.1247 22.4488 16.1374 22.4521 16.1504ZM22.4268 16.0762C22.4204 16.0613 22.4137 16.0471 22.4062 16.0332C22.4138 16.047 22.4204 16.0613 22.4268 16.0762ZM22.3867 16C22.3775 15.9857 22.3679 15.9719 22.3574 15.959C22.3679 15.9719 22.3774 15.9857 22.3867 16ZM21.7812 15.9463C21.8187 15.9031 21.863 15.8684 21.9111 15.8447C21.863 15.8684 21.8187 15.9031 21.7812 15.9463ZM22.3359 15.9336C22.3261 15.923 22.3153 15.9137 22.3047 15.9043C22.3154 15.9136 22.326 15.9231 22.3359 15.9336ZM22.2168 15.8447C22.1935 15.8334 22.1694 15.8243 22.1445 15.8184V15.8174L22.1045 15.8135C22.1433 15.8181 22.1812 15.8275 22.2168 15.8447ZM22.2812 15.8838C22.2624 15.8696 22.2422 15.858 22.2217 15.8477C22.2422 15.858 22.2624 15.8697 22.2812 15.8838Z" fill="#46464A"/>
<path d="M24.9586 16.8557C25.2247 16.8557 25.4405 16.6045 25.4405 16.2946C25.4405 15.9846 25.2247 15.7334 24.9586 15.7334C24.6924 15.7334 24.4766 15.9846 24.4766 16.2946C24.4766 16.6045 24.6924 16.8557 24.9586 16.8557Z" fill="#46464A"/>
<path d="M25.291 16.2949C25.291 16.0459 25.1216 15.8841 24.959 15.8838C24.7962 15.8838 24.627 16.0456 24.627 16.2949C24.6271 16.544 24.7963 16.7061 24.959 16.7061V16.8555L24.8613 16.8447C24.6729 16.7999 24.5247 16.6266 24.4863 16.4072L24.4766 16.2949C24.4766 15.985 24.6928 15.7334 24.959 15.7334L25.0557 15.7451C25.2753 15.7975 25.4404 16.0238 25.4404 16.2949L25.4307 16.4072C25.3859 16.663 25.1918 16.8552 24.959 16.8555V16.7061C25.1215 16.7058 25.2909 16.5438 25.291 16.2949Z" fill="#46464A"/>
<path d="M24.9688 15.6582V15.6592L25.0654 15.6709L25.0742 15.6719L25.168 15.7041C25.3768 15.7998 25.5166 16.0333 25.5166 16.2949V16.3018L25.5068 16.4141L25.5059 16.4199C25.4564 16.7026 25.2376 16.9304 24.96 16.9307H24.9521V16.9297L24.8545 16.9189L24.8447 16.918C24.622 16.8649 24.4557 16.663 24.4131 16.4199L24.4121 16.4141L24.4023 16.3018V16.2949L24.4131 16.1699C24.4632 15.8852 24.6818 15.6582 24.96 15.6582H24.9688ZM24.7441 16.7051C24.7858 16.7365 24.8312 16.7599 24.8799 16.7715H24.8809C24.832 16.7597 24.786 16.7365 24.7441 16.7051ZM25.0654 16.7607C25.0783 16.7565 25.0911 16.7527 25.1035 16.7471C25.0911 16.7528 25.0783 16.7565 25.0654 16.7607ZM25.1299 16.7334C25.1437 16.7257 25.157 16.7174 25.1699 16.708C25.1569 16.7174 25.1437 16.7257 25.1299 16.7334ZM24.917 15.9639C24.814 15.9893 24.7031 16.1043 24.7031 16.2949L24.709 16.3721C24.7384 16.5403 24.8619 16.6309 24.96 16.6309L25.0029 16.625C25.1058 16.5992 25.2167 16.4849 25.2168 16.2949L25.2109 16.2178C25.1816 16.0498 25.0582 15.9592 24.96 15.959L24.917 15.9639ZM24.6299 16.5781C24.6578 16.6244 24.6926 16.6635 24.7314 16.6953C24.6924 16.6636 24.6579 16.6243 24.6299 16.5781ZM25.2021 16.6816C25.2088 16.6757 25.2153 16.6695 25.2217 16.6631C25.2153 16.6695 25.2088 16.6757 25.2021 16.6816ZM25.2568 16.625C25.2633 16.6167 25.2684 16.6075 25.2744 16.5986C25.2684 16.6074 25.2633 16.6167 25.2568 16.625ZM24.5908 16.4971C24.5994 16.5193 24.609 16.5404 24.6201 16.5605C24.609 16.5404 24.5994 16.5193 24.5908 16.4971ZM25.3018 16.5547C25.306 16.5468 25.3096 16.5385 25.3135 16.5303C25.3096 16.5385 25.306 16.5468 25.3018 16.5547ZM24.5654 16.4141C24.57 16.4356 24.5762 16.4564 24.583 16.4766C24.5762 16.4564 24.57 16.4357 24.5654 16.4141ZM24.625 16.0186C24.595 16.0699 24.5729 16.1288 24.5615 16.1934L24.5869 16.1006C24.5975 16.0715 24.6101 16.044 24.625 16.0186ZM25.3467 16.1504C25.3433 16.1375 25.3402 16.1247 25.3359 16.1123C25.3402 16.1247 25.3433 16.1374 25.3467 16.1504ZM25.3213 16.0762C25.315 16.0613 25.3083 16.0471 25.3008 16.0332C25.3083 16.047 25.315 16.0613 25.3213 16.0762ZM25.2812 16C25.272 15.9857 25.2624 15.9719 25.252 15.959C25.2625 15.9719 25.2719 15.9857 25.2812 16ZM24.6758 15.9463C24.7133 15.9031 24.7576 15.8684 24.8057 15.8447C24.7575 15.8684 24.7133 15.9031 24.6758 15.9463ZM25.2305 15.9336C25.2206 15.923 25.2099 15.9137 25.1992 15.9043C25.2099 15.9136 25.2205 15.9231 25.2305 15.9336ZM25.1113 15.8447C25.088 15.8334 25.0639 15.8243 25.0391 15.8184V15.8174L24.999 15.8135C25.0378 15.8181 25.0757 15.8275 25.1113 15.8447ZM25.1758 15.8838C25.1569 15.8696 25.1368 15.858 25.1162 15.8477C25.1368 15.858 25.1569 15.8697 25.1758 15.8838Z" fill="#46464A"/>
<path d="M26.6523 25.9745C26.6973 25.9226 26.7822 25.9124 26.842 25.9515C27.2537 26.2203 28.5504 27.0869 29.0778 28.6317L29.1721 28.9501L29.1732 28.9519C29.6187 30.8914 28.5053 32.3447 28.2848 32.6326C28.2432 32.6868 28.1584 32.7011 28.0961 32.6649C28.0339 32.6287 28.0176 32.5558 28.059 32.5016C28.2727 32.2226 29.3286 30.8407 28.9071 29.0009C28.484 27.3438 27.1084 26.4203 26.6788 26.1397C26.6191 26.1005 26.6074 26.0266 26.6523 25.9745Z" fill="#FF8080"/>
<path d="M26.5963 25.9263C26.6675 25.8443 26.7943 25.8311 26.8834 25.8892C27.2964 26.1589 28.6128 27.0374 29.1491 28.608L29.15 28.6109L29.2418 28.9195L29.2448 28.9244L29.2467 28.9361C29.7003 30.9112 28.5671 32.3897 28.3454 32.6793C28.2787 32.766 28.151 32.7833 28.0592 32.73C27.9617 32.6732 27.9286 32.5499 27.9997 32.4566L28.1139 32.3033C28.4486 31.8333 29.1953 30.5978 28.8346 29.0201L28.7467 28.7232C28.3198 27.4735 27.3508 26.6939 26.8385 26.3375L26.6383 26.2027C26.5433 26.1402 26.52 26.0149 26.5963 25.9263ZM26.7272 26.0103L26.7096 26.024C26.7014 26.0335 26.6997 26.0428 26.7008 26.0503C26.7021 26.0582 26.7072 26.069 26.7204 26.0777C27.1241 26.3413 28.3782 27.1813 28.8883 28.6753L28.9801 28.983L28.9811 28.9849C29.4107 30.8604 28.3337 32.2668 28.1188 32.5474C28.1115 32.557 28.1113 32.5662 28.1129 32.5738C28.1147 32.5815 28.1199 32.5919 28.1334 32.6002C28.1662 32.6192 28.2097 32.609 28.2262 32.5875C28.4459 32.3006 29.5374 30.8723 29.1002 28.9693V28.9683L29.0075 28.6568L28.902 28.3795C28.333 27.033 27.1863 26.2665 26.8014 26.0152C26.7785 26.0002 26.7486 25.9999 26.7272 26.0103Z" fill="#FF8080"/>
<path d="M18.9022 24.4092C18.9681 24.4179 19.0146 24.4769 19.0058 24.5407L18.7168 26.5985C18.7078 26.6624 18.647 26.7075 18.5812 26.699C18.5153 26.6902 18.4687 26.6305 18.4777 26.5665L18.7667 24.5097C18.7756 24.4459 18.8365 24.4008 18.9022 24.4092Z" fill="#FF8080"/>
<path d="M18.913 24.3346C19.0047 24.3468 19.0756 24.421 19.0819 24.5114L19.081 24.5505L18.7919 26.609C18.7767 26.7152 18.6768 26.7867 18.5722 26.7731C18.4669 26.7591 18.3892 26.6624 18.4042 26.5553L18.6933 24.4987C18.7083 24.3924 18.8085 24.3212 18.913 24.3346ZM18.8583 24.4919C18.8492 24.4988 18.8432 24.5096 18.8417 24.5202L18.5526 26.5768C18.5499 26.5976 18.5654 26.6211 18.5917 26.6247C18.6186 26.6282 18.6405 26.6089 18.6435 26.5876L18.9325 24.5299C18.9352 24.5097 18.9202 24.4867 18.8935 24.4831L18.8583 24.4919Z" fill="#FF8080"/>
<path d="M15.7031 13.2087C16.8599 14.331 18.4987 14.9857 20.3302 14.9857C23.1258 14.9857 25.3429 13.6268 26.1141 11.3822C26.1141 11.3822 25.8412 10.936 25.7448 10.936C24.7809 9.90722 23.7041 10.1224 21.5834 9.8418C19.4626 10.0288 17.0527 10.7771 15.7995 13.2087H15.7031Z" fill="#9C6136"/>
<ellipse cx="18.0821" cy="15.5702" rx="1.07036" ry="1.20595" fill="url(#paint1_linear_17977_209644)"/>
<path d="M25.7547 27.8816L25.5919 28.039L25.429 27.8816C24.9694 27.4379 24.218 27.4379 23.7584 27.8816C23.2993 28.3253 23.2993 29.052 23.7584 29.4957L23.9212 29.6531L25.2426 30.9302C25.4354 31.1165 25.7478 31.1165 25.9406 30.9302L27.262 29.6531L27.4248 29.4957C27.8839 29.052 27.8839 28.3253 27.4248 27.8816C26.9657 27.4379 26.2138 27.4379 25.7547 27.8816Z" fill="#F15D5F"/>
<defs>
<linearGradient id="paint0_linear_17977_209644" x1="21.9513" y1="11.3955" x2="21.9513" y2="18.5427" gradientUnits="userSpaceOnUse">
<stop stop-color="#FFDAB4"/>
<stop offset="1" stop-color="#FFC599"/>
</linearGradient>
<linearGradient id="paint1_linear_17977_209644" x1="18.0821" y1="14.3643" x2="18.0821" y2="15.9361" gradientUnits="userSpaceOnUse">
<stop stop-color="#FFD0A7"/>
<stop offset="1" stop-color="#FFCBA0"/>
</linearGradient>
</defs>
</svg>
