<svg width="44" height="44" viewBox="0 0 44 44" fill="none" xmlns="http://www.w3.org/2000/svg">
<rect width="44" height="44" rx="16" fill="#F4F5F6"/>
<path d="M23.2807 20.4455C23.6926 26.8276 25.5938 31.1346 27.8485 31.365C29.2002 31.4203 30.1346 30.704 30.4329 30.3389" stroke="#464C53" stroke-width="1.5" stroke-miterlimit="10" stroke-linecap="round"/>
<path fill-rule="evenodd" clip-rule="evenodd" d="M24.0353 20.8058C24.1963 19.2059 25.7533 18.0462 27.5251 18.218C29.2968 18.3899 30.6068 19.8287 30.4457 21.4286C30.2846 23.0286 28.7277 24.1883 26.9559 24.0165C25.1842 23.8447 23.8849 22.4058 24.0353 20.8058Z" fill="#D9D4D4"/>
<path fill-rule="evenodd" clip-rule="evenodd" d="M22.0518 22.4499C23.6517 22.611 24.8113 24.168 24.6395 25.9397C24.4677 27.7114 23.0289 29.0107 21.4289 28.8604C19.829 28.6993 18.6693 27.1423 18.8411 25.3706C19.0129 23.5989 20.4518 22.2889 22.0518 22.4499Z" fill="#D9D4D4"/>
<path fill-rule="evenodd" clip-rule="evenodd" d="M19.8794 19.7949C19.7183 21.3948 18.1613 22.5545 16.3896 22.3827C14.6178 22.2109 13.3185 20.772 13.4689 19.1721C13.6192 17.5721 15.1869 16.4125 16.9587 16.5843C18.7304 16.7561 20.0297 18.1949 19.8794 19.8056V19.7949Z" fill="#D9D4D4"/>
<path fill-rule="evenodd" clip-rule="evenodd" d="M21.8703 18.1641C20.2703 18.003 19.1107 16.4461 19.2825 14.6743C19.4543 12.9026 20.8932 11.5926 22.4931 11.7536C24.093 11.9147 25.2527 13.4717 25.0809 15.2434C24.9091 17.0152 23.4702 18.3144 21.8703 18.1641Z" fill="#D9D4D4"/>
<path fill-rule="evenodd" clip-rule="evenodd" d="M23.3597 19.1508C22.3396 17.9052 22.6188 15.9832 23.9933 14.8557C25.3677 13.7282 27.3112 13.8248 28.3313 15.0704C29.3514 16.316 29.0722 18.2381 27.6978 19.3656C26.3233 20.493 24.3798 20.3964 23.3597 19.1615V19.1508Z" fill="#EBEAEA"/>
<path fill-rule="evenodd" clip-rule="evenodd" d="M20.5423 21.462C21.5623 22.7076 21.2831 24.6297 19.9087 25.7572C18.5343 26.8846 16.5907 26.788 15.5706 25.5531C14.5506 24.3076 14.8298 22.3855 16.2042 21.258C17.5786 20.1305 19.5222 20.2272 20.5423 21.4728V21.462Z" fill="#EBEAEA"/>
<path fill-rule="evenodd" clip-rule="evenodd" d="M23.1126 21.7074C24.3581 20.6873 26.2802 20.9665 27.4077 22.3409C28.5352 23.7153 28.4385 25.6589 27.2037 26.679C25.9581 27.699 24.036 27.4199 22.9085 26.0454C21.7811 24.671 21.8777 22.7275 23.1126 21.7074Z" fill="#EBEAEA"/>
<path fill-rule="evenodd" clip-rule="evenodd" d="M20.8013 18.8928C19.5557 19.9129 17.6337 19.6337 16.5062 18.2593C15.3787 16.8849 15.4754 14.9413 16.7102 13.9212C17.9558 12.9012 19.8779 13.1803 21.0053 14.5548C22.1328 15.9292 22.0362 17.8727 20.8013 18.8928Z" fill="#EBEAEA"/>
<path fill-rule="evenodd" clip-rule="evenodd" d="M23.6245 22.3426C24.7412 21.4192 24.9131 19.7656 23.9896 18.6381C23.0662 17.5106 21.4125 17.3496 20.2851 18.273C19.1683 19.1965 18.9965 20.8501 19.9199 21.9776C20.8434 23.0943 22.497 23.2661 23.6245 22.3426Z" fill="#8A949E"/>
</svg>
